<svg xmlns="http://www.w3.org/2000/svg" viewBox="0 0 1850 1080" font-family="Segoe UI, Arial, sans-serif">
  <defs>
    <marker id="arr" viewBox="0 0 10 10" refX="9" refY="5" markerWidth="7" markerHeight="7" orient="auto-start-reverse">
      <path d="M0,0 L10,5 L0,10 z" fill="#64748B"/>
    </marker>
  </defs>

  <rect x="0" y="0" width="1850" height="1080" fill="#F8FAFC"/>

  <!-- ================= TITLE ================= -->
  <text x="40" y="30" font-size="20" font-weight="800" fill="#0F172A">UMBRELLA FINANCE — DATABASE SCHEMA</text>
  <text x="40" y="48" font-size="12" fill="#64748B">Database: ufin  ·  MySQL / InnoDB  ·  31 tables  ·  Timezone IST (+05:30)</text>

  <!-- ================= RELATIONSHIP LINES (behind boxes) ================= -->
  <g stroke="#94A3B8" stroke-width="1.4" fill="none">
    <!-- role_permissions -> roles / permissions -->
    <path d="M40,330 H28 V130 H38" marker-end="url(#arr)"/>
    <path d="M150,315 V279" marker-end="url(#arr)"/>
    <!-- users.role_id -> roles -->
    <path d="M40,470 H18 V100 H38" marker-end="url(#arr)"/>
    <!-- areas -> branches, agents -> areas -->
    <path d="M445,240 V194" marker-end="url(#arr)"/>
    <path d="M445,395 V349" marker-end="url(#arr)"/>
    <!-- agents.user_id -> users -->
    <path d="M330,455 H272" marker-end="url(#arr)"/>
    <!-- agents.policy_id -> policies -->
    <path d="M330,520 H300 V680 H272" marker-end="url(#arr)"/>
    <!-- customers.agent_id -> agents -->
    <path d="M620,255 H590 V470 H562" marker-end="url(#arr)"/>
    <!-- customer child tables spine (customer_id) -->
    <path d="M606,800 V310 L630,289" marker-end="url(#arr)"/>
    <line x1="620" y1="385" x2="606" y2="385"/>
    <line x1="620" y1="525" x2="606" y2="525"/>
    <line x1="620" y1="665" x2="606" y2="665"/>
    <line x1="620" y1="800" x2="606" y2="800"/>
    <!-- loan_accounts -> customers / loan_plans -->
    <path d="M940,265 H895 V225 H872" marker-end="url(#arr)"/>
    <path d="M1070,210 V164" marker-end="url(#arr)"/>
    <!-- loan_installments / loan_collections -> loan_accounts -->
    <path d="M1070,440 V394" marker-end="url(#arr)"/>
    <path d="M940,650 H920 V310 H938" marker-end="url(#arr)"/>
    <!-- saving_accounts -> customers (top route) / saving_plans -->
    <path d="M1320,210 V20 H745 V118" marker-end="url(#arr)"/>
    <path d="M1380,210 V164" marker-end="url(#arr)"/>
    <!-- saving_installments / deposits / maturity -> saving_accounts -->
    <path d="M1380,425 V379" marker-end="url(#arr)"/>
    <path d="M1250,650 H1228 V300 H1248" marker-end="url(#arr)"/>
    <path d="M1250,840 H1214 V280 H1248" marker-end="url(#arr)"/>
    <!-- capital_entries -> fund_sources -->
    <path d="M1685,565 V519" marker-end="url(#arr)"/>
  </g>
  <!-- dotted logical links -->
  <g stroke="#94A3B8" stroke-width="1.4" fill="none" stroke-dasharray="5,4">
    <path d="M1200,760 H1520 V110 H1558" marker-end="url(#arr)"/>
    <path d="M1510,650 H1535 V125 H1558" marker-end="url(#arr)"/>
    <path d="M1685,225 V179" marker-end="url(#arr)"/>
  </g>
  <text x="756" y="16" font-size="9.5" fill="#64748B">customer_id (FK)</text>
  <text x="600" y="560" font-size="9.5" fill="#0D9488" transform="rotate(-90 600 560)">customer_id (FK)</text>
  <text x="1290" y="756" font-size="9.5" fill="#64748B">receipt_no →</text>

  <!-- ================= GROUP LABELS ================= -->
  <text x="40" y="63" font-size="11" font-weight="800" fill="#4F46E5" letter-spacing="1">RBAC &amp; USERS</text>
  <text x="330" y="63" font-size="11" font-weight="800" fill="#0A3598" letter-spacing="1">ORGANIZATION</text>
  <text x="620" y="113" font-size="11" font-weight="800" fill="#0D9488" letter-spacing="1">CUSTOMER</text>
  <text x="940" y="33" font-size="11" font-weight="800" fill="#D97706" letter-spacing="1">LOAN SIDE</text>
  <text x="1250" y="33" font-size="11" font-weight="800" fill="#16A34A" letter-spacing="1">SAVING SIDE</text>
  <text x="1560" y="33" font-size="11" font-weight="800" fill="#7C3AED" letter-spacing="1">FUNDS &amp; LEDGER</text>
  <text x="40" y="950" font-size="11" font-weight="800" fill="#64748B" letter-spacing="1">SYSTEM TABLES</text>

  <!-- ================= RBAC & USERS (indigo) ================= -->
  <!-- roles -->
  <g>
    <rect x="40" y="70" width="230" height="77" rx="6" fill="#FFFFFF" stroke="#C7D2FE"/>
    <rect x="40" y="70" width="230" height="24" rx="6" fill="#4F46E5"/>
    <rect x="40" y="88" width="230" height="6" fill="#4F46E5"/>
    <text x="52" y="86" font-size="12" font-weight="700" fill="#FFFFFF">roles</text>
    <text x="52" y="107" font-size="10.5" fill="#334155">PK  id</text>
    <text x="52" y="122" font-size="10.5" fill="#334155">name</text>
    <text x="52" y="137" font-size="10.5" fill="#334155">UQ  slug (super_admin, agent…)</text>
  </g>
  <!-- permissions -->
  <g>
    <rect x="40" y="185" width="230" height="92" rx="6" fill="#FFFFFF" stroke="#C7D2FE"/>
    <rect x="40" y="185" width="230" height="24" rx="6" fill="#4F46E5"/>
    <rect x="40" y="203" width="230" height="6" fill="#4F46E5"/>
    <text x="52" y="201" font-size="12" font-weight="700" fill="#FFFFFF">permissions</text>
    <text x="52" y="222" font-size="10.5" fill="#334155">PK  id</text>
    <text x="52" y="237" font-size="10.5" fill="#334155">name</text>
    <text x="52" y="252" font-size="10.5" fill="#334155">UQ  slug (loans.approve…)</text>
    <text x="52" y="267" font-size="10.5" fill="#334155">module</text>
  </g>
  <!-- role_permissions -->
  <g>
    <rect x="40" y="315" width="230" height="62" rx="6" fill="#FFFFFF" stroke="#C7D2FE"/>
    <rect x="40" y="315" width="230" height="24" rx="6" fill="#4F46E5"/>
    <rect x="40" y="333" width="230" height="6" fill="#4F46E5"/>
    <text x="52" y="331" font-size="12" font-weight="700" fill="#FFFFFF">role_permissions</text>
    <text x="52" y="352" font-size="10.5" fill="#334155">FK  role_id → roles</text>
    <text x="52" y="367" font-size="10.5" fill="#334155">FK  permission_id → permissions</text>
  </g>
  <!-- users -->
  <g>
    <rect x="40" y="415" width="230" height="167" rx="6" fill="#FFFFFF" stroke="#C7D2FE"/>
    <rect x="40" y="415" width="230" height="24" rx="6" fill="#4F46E5"/>
    <rect x="40" y="433" width="230" height="6" fill="#4F46E5"/>
    <text x="52" y="431" font-size="12" font-weight="700" fill="#FFFFFF">users</text>
    <text x="52" y="452" font-size="10.5" fill="#334155">PK  id · uuid</text>
    <text x="52" y="467" font-size="10.5" fill="#334155">name</text>
    <text x="52" y="482" font-size="10.5" fill="#334155">UQ  mobile / email</text>
    <text x="52" y="497" font-size="10.5" fill="#334155">password_hash · pin_hash</text>
    <text x="52" y="512" font-size="10.5" fill="#334155">FK  role_id → roles</text>
    <text x="52" y="527" font-size="10.5" fill="#334155">FK  branch_id / area_id</text>
    <text x="52" y="542" font-size="10.5" fill="#334155">FK  agent_id / policy_id</text>
    <text x="52" y="557" font-size="10.5" fill="#334155">auth_token · token_expires_at</text>
    <text x="52" y="572" font-size="10.5" fill="#334155">status (Active/Inactive/Susp.)</text>
  </g>
  <!-- policies -->
  <g>
    <rect x="40" y="620" width="230" height="122" rx="6" fill="#FFFFFF" stroke="#C7D2FE"/>
    <rect x="40" y="620" width="230" height="24" rx="6" fill="#4F46E5"/>
    <rect x="40" y="638" width="230" height="6" fill="#4F46E5"/>
    <text x="52" y="636" font-size="12" font-weight="700" fill="#FFFFFF">policies</text>
    <text x="52" y="657" font-size="10.5" fill="#334155">PK  id</text>
    <text x="52" y="672" font-size="10.5" fill="#334155">name · role</text>
    <text x="52" y="687" font-size="10.5" fill="#334155">allow_login / disbursement</text>
    <text x="52" y="702" font-size="10.5" fill="#334155">allow_backdated / out_area</text>
    <text x="52" y="717" font-size="10.5" fill="#334155">max_limit</text>
    <text x="52" y="732" font-size="10.5" fill="#334155">session_timeout</text>
  </g>

  <!-- ================= ORGANIZATION (blue) ================= -->
  <!-- branches -->
  <g>
    <rect x="330" y="70" width="230" height="122" rx="6" fill="#FFFFFF" stroke="#BFD0F0"/>
    <rect x="330" y="70" width="230" height="24" rx="6" fill="#0A3598"/>
    <rect x="330" y="88" width="230" height="6" fill="#0A3598"/>
    <text x="342" y="86" font-size="12" font-weight="700" fill="#FFFFFF">branches</text>
    <text x="342" y="107" font-size="10.5" fill="#334155">PK  id · uuid</text>
    <text x="342" y="122" font-size="10.5" fill="#334155">UQ  code (BR-LKO-01)</text>
    <text x="342" y="137" font-size="10.5" fill="#334155">name · city · address</text>
    <text x="342" y="152" font-size="10.5" fill="#334155">FK  manager_id → users</text>
    <text x="342" y="167" font-size="10.5" fill="#334155">allow_registrations / collections</text>
    <text x="342" y="182" font-size="10.5" fill="#334155">status</text>
  </g>
  <!-- areas -->
  <g>
    <rect x="330" y="240" width="230" height="107" rx="6" fill="#FFFFFF" stroke="#BFD0F0"/>
    <rect x="330" y="240" width="230" height="24" rx="6" fill="#0A3598"/>
    <rect x="330" y="258" width="230" height="6" fill="#0A3598"/>
    <text x="342" y="256" font-size="12" font-weight="700" fill="#FFFFFF">areas</text>
    <text x="342" y="277" font-size="10.5" fill="#334155">PK  id · uuid</text>
    <text x="342" y="292" font-size="10.5" fill="#334155">UQ  code (AR-LKO-HZN)</text>
    <text x="342" y="307" font-size="10.5" fill="#334155">name</text>
    <text x="342" y="322" font-size="10.5" fill="#334155">FK  branch_id → branches</text>
    <text x="342" y="337" font-size="10.5" fill="#334155">FK  manager_id → users</text>
  </g>
  <!-- agents -->
  <g>
    <rect x="330" y="395" width="230" height="167" rx="6" fill="#FFFFFF" stroke="#BFD0F0"/>
    <rect x="330" y="395" width="230" height="24" rx="6" fill="#0A3598"/>
    <rect x="330" y="413" width="230" height="6" fill="#0A3598"/>
    <text x="342" y="411" font-size="12" font-weight="700" fill="#FFFFFF">agents</text>
    <text x="342" y="432" font-size="10.5" fill="#334155">PK  id · uuid</text>
    <text x="342" y="447" font-size="10.5" fill="#334155">UQ  code (AG-01)</text>
    <text x="342" y="462" font-size="10.5" fill="#334155">name · mobile · email</text>
    <text x="342" y="477" font-size="10.5" fill="#334155">FK  user_id → users</text>
    <text x="342" y="492" font-size="10.5" fill="#334155">FK  branch_id → branches</text>
    <text x="342" y="507" font-size="10.5" fill="#334155">FK  area_id → areas</text>
    <text x="342" y="522" font-size="10.5" fill="#334155">FK  policy_id → policies</text>
    <text x="342" y="537" font-size="10.5" fill="#334155">kyc: aadhaar · pan · bank</text>
    <text x="342" y="552" font-size="10.5" fill="#334155">joining_date · status</text>
  </g>

  <!-- ================= CUSTOMER (teal) ================= -->
  <!-- customers -->
  <g>
    <rect x="620" y="120" width="250" height="167" rx="6" fill="#FFFFFF" stroke="#A7E3DC"/>
    <rect x="620" y="120" width="250" height="24" rx="6" fill="#0D9488"/>
    <rect x="620" y="138" width="250" height="6" fill="#0D9488"/>
    <text x="632" y="136" font-size="12" font-weight="700" fill="#FFFFFF">customers</text>
    <text x="632" y="157" font-size="10.5" fill="#334155">PK  id · uuid</text>
    <text x="632" y="172" font-size="10.5" fill="#334155">UQ  customer_code (UF-CU-2026-…)</text>
    <text x="632" y="187" font-size="10.5" fill="#334155">full_name · mobile · alt_mobile</text>
    <text x="632" y="202" font-size="10.5" fill="#334155">dob · gender · occupation</text>
    <text x="632" y="217" font-size="10.5" fill="#334155">monthly_income</text>
    <text x="632" y="232" font-size="10.5" fill="#334155">FK  branch_id → branches</text>
    <text x="632" y="247" font-size="10.5" fill="#334155">FK  area_id → areas</text>
    <text x="632" y="262" font-size="10.5" fill="#334155">FK  agent_id → agents</text>
    <text x="632" y="277" font-size="10.5" fill="#334155">status (Active/Blocked)</text>
  </g>
  <!-- customer_addresses -->
  <g>
    <rect x="620" y="340" width="250" height="92" rx="6" fill="#FFFFFF" stroke="#A7E3DC"/>
    <rect x="620" y="340" width="250" height="24" rx="6" fill="#0D9488"/>
    <rect x="620" y="358" width="250" height="6" fill="#0D9488"/>
    <text x="632" y="356" font-size="12" font-weight="700" fill="#FFFFFF">customer_addresses</text>
    <text x="632" y="377" font-size="10.5" fill="#334155">PK  id</text>
    <text x="632" y="392" font-size="10.5" fill="#334155">FK  customer_id  (CASCADE)</text>
    <text x="632" y="407" font-size="10.5" fill="#334155">address_type (Permanent/Current)</text>
    <text x="632" y="422" font-size="10.5" fill="#334155">address_line1/2 · city · state · pincode</text>
  </g>
  <!-- customer_kyc -->
  <g>
    <rect x="620" y="465" width="250" height="122" rx="6" fill="#FFFFFF" stroke="#A7E3DC"/>
    <rect x="620" y="465" width="250" height="24" rx="6" fill="#0D9488"/>
    <rect x="620" y="483" width="250" height="6" fill="#0D9488"/>
    <text x="632" y="481" font-size="12" font-weight="700" fill="#FFFFFF">customer_kyc</text>
    <text x="632" y="502" font-size="10.5" fill="#334155">PK  id</text>
    <text x="632" y="517" font-size="10.5" fill="#334155">UQ FK  customer_id  (CASCADE)</text>
    <text x="632" y="532" font-size="10.5" fill="#334155">aadhaar_no · pan_no · voter_id</text>
    <text x="632" y="547" font-size="10.5" fill="#334155">bank_name · account_no · ifsc</text>
    <text x="632" y="562" font-size="10.5" fill="#334155">doc paths (aadhaar/pan/cheque)</text>
    <text x="632" y="577" font-size="10.5" fill="#334155">verified · verified_by / at</text>
  </g>
  <!-- customer_documents -->
  <g>
    <rect x="620" y="620" width="250" height="92" rx="6" fill="#FFFFFF" stroke="#A7E3DC"/>
    <rect x="620" y="620" width="250" height="24" rx="6" fill="#0D9488"/>
    <rect x="620" y="638" width="250" height="6" fill="#0D9488"/>
    <text x="632" y="636" font-size="12" font-weight="700" fill="#FFFFFF">customer_documents</text>
    <text x="632" y="657" font-size="10.5" fill="#334155">PK  id</text>
    <text x="632" y="672" font-size="10.5" fill="#334155">FK  customer_id  (CASCADE)</text>
    <text x="632" y="687" font-size="10.5" fill="#334155">document_type · document_name</text>
    <text x="632" y="702" font-size="10.5" fill="#334155">file_path · uploaded_by</text>
  </g>
  <!-- guarantors -->
  <g>
    <rect x="620" y="745" width="250" height="122" rx="6" fill="#FFFFFF" stroke="#A7E3DC"/>
    <rect x="620" y="745" width="250" height="24" rx="6" fill="#0D9488"/>
    <rect x="620" y="763" width="250" height="6" fill="#0D9488"/>
    <text x="632" y="761" font-size="12" font-weight="700" fill="#FFFFFF">guarantors</text>
    <text x="632" y="782" font-size="10.5" fill="#334155">PK  id</text>
    <text x="632" y="797" font-size="10.5" fill="#334155">FK  customer_id  (CASCADE)</text>
    <text x="632" y="812" font-size="10.5" fill="#334155">loan_account_id (optional)</text>
    <text x="632" y="827" font-size="10.5" fill="#334155">name · mobile · relation</text>
    <text x="632" y="842" font-size="10.5" fill="#334155">aadhaar_no · monthly_income</text>
    <text x="632" y="857" font-size="10.5" fill="#334155">photo / aadhaar image paths</text>
  </g>

  <!-- ================= LOAN SIDE (orange) ================= -->
  <!-- loan_plans -->
  <g>
    <rect x="940" y="40" width="260" height="122" rx="6" fill="#FFFFFF" stroke="#F5D9A8"/>
    <rect x="940" y="40" width="260" height="24" rx="6" fill="#D97706"/>
    <rect x="940" y="58" width="260" height="6" fill="#D97706"/>
    <text x="952" y="56" font-size="12" font-weight="700" fill="#FFFFFF">loan_plans</text>
    <text x="952" y="77" font-size="10.5" fill="#334155">PK  id · uuid</text>
    <text x="952" y="92" font-size="10.5" fill="#334155">name · min / max_amount</text>
    <text x="952" y="107" font-size="10.5" fill="#334155">interest_rate · type (Flat/Reducing)</text>
    <text x="952" y="122" font-size="10.5" fill="#334155">duration + unit · frequency</text>
    <text x="952" y="137" font-size="10.5" fill="#334155">processing_fee · penalty_per_day</text>
    <text x="952" y="152" font-size="10.5" fill="#334155">status</text>
  </g>
  <!-- loan_accounts -->
  <g>
    <rect x="940" y="210" width="260" height="182" rx="6" fill="#FFFFFF" stroke="#F5D9A8"/>
    <rect x="940" y="210" width="260" height="24" rx="6" fill="#D97706"/>
    <rect x="940" y="228" width="260" height="6" fill="#D97706"/>
    <text x="952" y="226" font-size="12" font-weight="700" fill="#FFFFFF">loan_accounts</text>
    <text x="952" y="247" font-size="10.5" fill="#334155">PK  id · uuid</text>
    <text x="952" y="262" font-size="10.5" fill="#334155">UQ  loan_account_no (UF-LN-2026-…)</text>
    <text x="952" y="277" font-size="10.5" fill="#334155">FK  customer_id → customers</text>
    <text x="952" y="292" font-size="10.5" fill="#334155">FK  loan_plan_id → loan_plans</text>
    <text x="952" y="307" font-size="10.5" fill="#334155">FK  branch / area / agent_id</text>
    <text x="952" y="322" font-size="10.5" fill="#334155">principal · interest_rate/type/amount</text>
    <text x="952" y="337" font-size="10.5" fill="#334155">total_payable · emi_amount</text>
    <text x="952" y="352" font-size="10.5" fill="#334155">total_paid · outstanding_amount</text>
    <text x="952" y="367" font-size="10.5" fill="#334155">account_status (Processing→Active→Closed)</text>
    <text x="952" y="382" font-size="10.5" fill="#334155">approved_by/at · closed_by/at</text>
  </g>
  <!-- loan_installments -->
  <g>
    <rect x="940" y="440" width="260" height="122" rx="6" fill="#FFFFFF" stroke="#F5D9A8"/>
    <rect x="940" y="440" width="260" height="24" rx="6" fill="#D97706"/>
    <rect x="940" y="458" width="260" height="6" fill="#D97706"/>
    <text x="952" y="456" font-size="12" font-weight="700" fill="#FFFFFF">loan_installments  (EMI schedule)</text>
    <text x="952" y="477" font-size="10.5" fill="#334155">PK  id</text>
    <text x="952" y="492" font-size="10.5" fill="#334155">FK  loan_account_id  (CASCADE)</text>
    <text x="952" y="507" font-size="10.5" fill="#334155">installment_no · due_date</text>
    <text x="952" y="522" font-size="10.5" fill="#334155">principal + interest component</text>
    <text x="952" y="537" font-size="10.5" fill="#334155">total_due · paid_amount · penalty</text>
    <text x="952" y="552" font-size="10.5" fill="#334155">status (Pending/Paid/Partial)</text>
  </g>
  <!-- loan_collections -->
  <g>
    <rect x="940" y="610" width="260" height="167" rx="6" fill="#FFFFFF" stroke="#F5D9A8"/>
    <rect x="940" y="610" width="260" height="24" rx="6" fill="#D97706"/>
    <rect x="940" y="628" width="260" height="6" fill="#D97706"/>
    <text x="952" y="626" font-size="12" font-weight="700" fill="#FFFFFF">loan_collections</text>
    <text x="952" y="647" font-size="10.5" fill="#334155">PK  id · uuid</text>
    <text x="952" y="662" font-size="10.5" fill="#334155">UQ  receipt_no (UF-RC-2026-…)</text>
    <text x="952" y="677" font-size="10.5" fill="#334155">FK  loan_account_id · customer_id</text>
    <text x="952" y="692" font-size="10.5" fill="#334155">branch / area / agent_id</text>
    <text x="952" y="707" font-size="10.5" fill="#334155">collection_date · collected_amount</text>
    <text x="952" y="722" font-size="10.5" fill="#334155">principal / interest / penalty split</text>
    <text x="952" y="737" font-size="10.5" fill="#334155">payment_mode · collected_by → users</text>
    <text x="952" y="752" font-size="10.5" fill="#334155">installment_allocations (JSON)</text>
    <text x="952" y="767" font-size="10.5" fill="#334155">is_reversal · is_advance</text>
  </g>

  <!-- ================= SAVING SIDE (green) ================= -->
  <!-- saving_plans -->
  <g>
    <rect x="1250" y="40" width="260" height="122" rx="6" fill="#FFFFFF" stroke="#B7E4C7"/>
    <rect x="1250" y="40" width="260" height="24" rx="6" fill="#16A34A"/>
    <rect x="1250" y="58" width="260" height="6" fill="#16A34A"/>
    <text x="1262" y="56" font-size="12" font-weight="700" fill="#FFFFFF">saving_plans</text>
    <text x="1262" y="77" font-size="10.5" fill="#334155">PK  id · uuid</text>
    <text x="1262" y="92" font-size="10.5" fill="#334155">name · deposit_amount</text>
    <text x="1262" y="107" font-size="10.5" fill="#334155">interest_rate</text>
    <text x="1262" y="122" font-size="10.5" fill="#334155">duration + unit · frequency</text>
    <text x="1262" y="137" font-size="10.5" fill="#334155">maturity_amount · bonus_amount</text>
    <text x="1262" y="152" font-size="10.5" fill="#334155">status</text>
  </g>
  <!-- saving_accounts -->
  <g>
    <rect x="1250" y="210" width="260" height="167" rx="6" fill="#FFFFFF" stroke="#B7E4C7"/>
    <rect x="1250" y="210" width="260" height="24" rx="6" fill="#16A34A"/>
    <rect x="1250" y="228" width="260" height="6" fill="#16A34A"/>
    <text x="1262" y="226" font-size="12" font-weight="700" fill="#FFFFFF">saving_accounts</text>
    <text x="1262" y="247" font-size="10.5" fill="#334155">PK  id · uuid</text>
    <text x="1262" y="262" font-size="10.5" fill="#334155">UQ  saving_account_no (UF-SV-2026-…)</text>
    <text x="1262" y="277" font-size="10.5" fill="#334155">FK  customer_id → customers</text>
    <text x="1262" y="292" font-size="10.5" fill="#334155">FK  saving_plan_id → saving_plans</text>
    <text x="1262" y="307" font-size="10.5" fill="#334155">FK  branch / area / agent_id</text>
    <text x="1262" y="322" font-size="10.5" fill="#334155">deposit_amount · total_deposited</text>
    <text x="1262" y="337" font-size="10.5" fill="#334155">maturity_date · maturity_amount</text>
    <text x="1262" y="352" font-size="10.5" fill="#334155">account_status (…Matured/Closed)</text>
    <text x="1262" y="367" font-size="10.5" fill="#334155">approved / closed info</text>
  </g>
  <!-- saving_installments -->
  <g>
    <rect x="1250" y="425" width="260" height="122" rx="6" fill="#FFFFFF" stroke="#B7E4C7"/>
    <rect x="1250" y="425" width="260" height="24" rx="6" fill="#16A34A"/>
    <rect x="1250" y="443" width="260" height="6" fill="#16A34A"/>
    <text x="1262" y="441" font-size="12" font-weight="700" fill="#FFFFFF">saving_installments</text>
    <text x="1262" y="462" font-size="10.5" fill="#334155">PK  id</text>
    <text x="1262" y="477" font-size="10.5" fill="#334155">FK  saving_account_id  (CASCADE)</text>
    <text x="1262" y="492" font-size="10.5" fill="#334155">installment_no · due_date</text>
    <text x="1262" y="507" font-size="10.5" fill="#334155">total_due · paid_amount</text>
    <text x="1262" y="522" font-size="10.5" fill="#334155">status (Pending/Paid/Partial)</text>
    <text x="1262" y="537" font-size="10.5" fill="#334155">deposit schedule</text>
  </g>
  <!-- saving_deposits -->
  <g>
    <rect x="1250" y="595" width="260" height="152" rx="6" fill="#FFFFFF" stroke="#B7E4C7"/>
    <rect x="1250" y="595" width="260" height="24" rx="6" fill="#16A34A"/>
    <rect x="1250" y="613" width="260" height="6" fill="#16A34A"/>
    <text x="1262" y="611" font-size="12" font-weight="700" fill="#FFFFFF">saving_deposits</text>
    <text x="1262" y="632" font-size="10.5" fill="#334155">PK  id · uuid</text>
    <text x="1262" y="647" font-size="10.5" fill="#334155">UQ  receipt_no (UF-RC-2026-…)</text>
    <text x="1262" y="662" font-size="10.5" fill="#334155">FK  saving_account_id · customer_id</text>
    <text x="1262" y="677" font-size="10.5" fill="#334155">branch / area / agent_id</text>
    <text x="1262" y="692" font-size="10.5" fill="#334155">deposit_date · deposit_amount</text>
    <text x="1262" y="707" font-size="10.5" fill="#334155">payment_mode · collected_by</text>
    <text x="1262" y="722" font-size="10.5" fill="#334155">installment_allocations (JSON)</text>
    <text x="1262" y="737" font-size="10.5" fill="#334155">is_reversal</text>
  </g>
  <!-- saving_maturity -->
  <g>
    <rect x="1250" y="780" width="260" height="122" rx="6" fill="#FFFFFF" stroke="#B7E4C7"/>
    <rect x="1250" y="780" width="260" height="24" rx="6" fill="#16A34A"/>
    <rect x="1250" y="798" width="260" height="6" fill="#16A34A"/>
    <text x="1262" y="796" font-size="12" font-weight="700" fill="#FFFFFF">saving_maturity</text>
    <text x="1262" y="817" font-size="10.5" fill="#334155">PK  id</text>
    <text x="1262" y="832" font-size="10.5" fill="#334155">FK  saving_account_id</text>
    <text x="1262" y="847" font-size="10.5" fill="#334155">maturity_date · total_deposited</text>
    <text x="1262" y="862" font-size="10.5" fill="#334155">interest_earned · bonus_amount</text>
    <text x="1262" y="877" font-size="10.5" fill="#334155">total_payout · payout_mode</text>
    <text x="1262" y="892" font-size="10.5" fill="#334155">processed_by · payout_date</text>
  </g>

  <!-- ================= FUNDS & LEDGER (purple) ================= -->
  <!-- receipts -->
  <g>
    <rect x="1560" y="40" width="250" height="137" rx="6" fill="#FFFFFF" stroke="#DDD0F7"/>
    <rect x="1560" y="40" width="250" height="24" rx="6" fill="#7C3AED"/>
    <rect x="1560" y="58" width="250" height="6" fill="#7C3AED"/>
    <text x="1572" y="56" font-size="12" font-weight="700" fill="#FFFFFF">receipts  (central)</text>
    <text x="1572" y="77" font-size="10.5" fill="#334155">PK  id</text>
    <text x="1572" y="92" font-size="10.5" fill="#334155">UQ  receipt_no</text>
    <text x="1572" y="107" font-size="10.5" fill="#334155">receipt_type (loan_collection /</text>
    <text x="1572" y="122" font-size="10.5" fill="#334155">   saving_deposit) · reference_id</text>
    <text x="1572" y="137" font-size="10.5" fill="#334155">customer_id · account_no</text>
    <text x="1572" y="152" font-size="10.5" fill="#334155">amount · payment_mode</text>
    <text x="1572" y="167" font-size="10.5" fill="#334155">generated_by · created_at</text>
  </g>
  <!-- cash_book -->
  <g>
    <rect x="1560" y="225" width="250" height="137" rx="6" fill="#FFFFFF" stroke="#DDD0F7"/>
    <rect x="1560" y="225" width="250" height="24" rx="6" fill="#7C3AED"/>
    <rect x="1560" y="243" width="250" height="6" fill="#7C3AED"/>
    <text x="1572" y="241" font-size="12" font-weight="700" fill="#FFFFFF">cash_book</text>
    <text x="1572" y="262" font-size="10.5" fill="#334155">PK  id · uuid</text>
    <text x="1572" y="277" font-size="10.5" fill="#334155">entry_date · entry_type (credit/debit)</text>
    <text x="1572" y="292" font-size="10.5" fill="#334155">category (Capital/Payout/EMI…)</text>
    <text x="1572" y="307" font-size="10.5" fill="#334155">reference_no · reference_type</text>
    <text x="1572" y="322" font-size="10.5" fill="#334155">amount · balance_after</text>
    <text x="1572" y="337" font-size="10.5" fill="#334155">branch_id · entered_by</text>
    <text x="1572" y="352" font-size="10.5" fill="#334155">running ledger</text>
  </g>
  <!-- fund_sources -->
  <g>
    <rect x="1560" y="410" width="250" height="107" rx="6" fill="#FFFFFF" stroke="#DDD0F7"/>
    <rect x="1560" y="410" width="250" height="24" rx="6" fill="#7C3AED"/>
    <rect x="1560" y="428" width="250" height="6" fill="#7C3AED"/>
    <text x="1572" y="426" font-size="12" font-weight="700" fill="#FFFFFF">fund_sources</text>
    <text x="1572" y="447" font-size="10.5" fill="#334155">PK  id · uuid</text>
    <text x="1572" y="462" font-size="10.5" fill="#334155">source_type (owner_capital/investor)</text>
    <text x="1572" y="477" font-size="10.5" fill="#334155">source_name</text>
    <text x="1572" y="492" font-size="10.5" fill="#334155">total_invested</text>
    <text x="1572" y="507" font-size="10.5" fill="#334155">status</text>
  </g>
  <!-- capital_entries -->
  <g>
    <rect x="1560" y="565" width="250" height="122" rx="6" fill="#FFFFFF" stroke="#DDD0F7"/>
    <rect x="1560" y="565" width="250" height="24" rx="6" fill="#7C3AED"/>
    <rect x="1560" y="583" width="250" height="6" fill="#7C3AED"/>
    <text x="1572" y="581" font-size="12" font-weight="700" fill="#FFFFFF">capital_entries</text>
    <text x="1572" y="602" font-size="10.5" fill="#334155">PK  id · uuid</text>
    <text x="1572" y="617" font-size="10.5" fill="#334155">UQ  transaction_no (UF-TX-2026-…)</text>
    <text x="1572" y="632" font-size="10.5" fill="#334155">FK  fund_source_id → fund_sources</text>
    <text x="1572" y="647" font-size="10.5" fill="#334155">entry_type (credit/debit)</text>
    <text x="1572" y="662" font-size="10.5" fill="#334155">amount · description</text>
    <text x="1572" y="677" font-size="10.5" fill="#334155">entry_date · entered_by</text>
  </g>

  <!-- ================= SYSTEM STRIP (slate) ================= -->
  <g>
    <rect x="40" y="960" width="230" height="77" rx="6" fill="#FFFFFF" stroke="#CBD5E1"/>
    <rect x="40" y="960" width="230" height="24" rx="6" fill="#64748B"/>
    <rect x="40" y="978" width="230" height="6" fill="#64748B"/>
    <text x="52" y="976" font-size="12" font-weight="700" fill="#FFFFFF">settings</text>
    <text x="52" y="997" font-size="10.5" fill="#334155">UQ  setting_key</text>
    <text x="52" y="1012" font-size="10.5" fill="#334155">setting_value · setting_type</text>
    <text x="52" y="1027" font-size="10.5" fill="#334155">(company, kyc, limits, sync…)</text>
  </g>
  <g>
    <rect x="330" y="960" width="230" height="77" rx="6" fill="#FFFFFF" stroke="#CBD5E1"/>
    <rect x="330" y="960" width="230" height="24" rx="6" fill="#64748B"/>
    <rect x="330" y="978" width="230" height="6" fill="#64748B"/>
    <text x="342" y="976" font-size="12" font-weight="700" fill="#FFFFFF">notifications</text>
    <text x="342" y="997" font-size="10.5" fill="#334155">PK  id</text>
    <text x="342" y="1012" font-size="10.5" fill="#334155">user_id / role target</text>
    <text x="342" y="1027" font-size="10.5" fill="#334155">title · message · is_read</text>
  </g>
  <g>
    <rect x="620" y="960" width="230" height="77" rx="6" fill="#FFFFFF" stroke="#CBD5E1"/>
    <rect x="620" y="960" width="230" height="24" rx="6" fill="#64748B"/>
    <rect x="620" y="978" width="230" height="6" fill="#64748B"/>
    <text x="632" y="976" font-size="12" font-weight="700" fill="#FFFFFF">audit_logs</text>
    <text x="632" y="997" font-size="10.5" fill="#334155">PK  id</text>
    <text x="632" y="1012" font-size="10.5" fill="#334155">user_id · action · module · ref_id</text>
    <text x="632" y="1027" font-size="10.5" fill="#334155">old_values · new_values (JSON)</text>
  </g>
  <g>
    <rect x="910" y="960" width="230" height="77" rx="6" fill="#FFFFFF" stroke="#CBD5E1"/>
    <rect x="910" y="960" width="230" height="24" rx="6" fill="#64748B"/>
    <rect x="910" y="978" width="230" height="6" fill="#64748B"/>
    <text x="922" y="976" font-size="12" font-weight="700" fill="#FFFFFF">sync_events</text>
    <text x="922" y="997" font-size="10.5" fill="#334155">PK  id</text>
    <text x="922" y="1012" font-size="10.5" fill="#334155">event_type · module · reference_id</text>
    <text x="922" y="1027" font-size="10.5" fill="#334155">branch / area / agent scope · title</text>
  </g>
  <g>
    <rect x="1200" y="960" width="230" height="77" rx="6" fill="#FFFFFF" stroke="#CBD5E1"/>
    <rect x="1200" y="960" width="230" height="24" rx="6" fill="#64748B"/>
    <rect x="1200" y="978" width="230" height="6" fill="#64748B"/>
    <text x="1212" y="976" font-size="12" font-weight="700" fill="#FFFFFF">number_sequences</text>
    <text x="1212" y="997" font-size="10.5" fill="#334155">PK  prefix + year</text>
    <text x="1212" y="1012" font-size="10.5" fill="#334155">last_number (atomic counter)</text>
    <text x="1212" y="1027" font-size="10.5" fill="#334155">UF-CU / LN / SV / RC / TX-2026-000001</text>
  </g>

  <!-- ================= LEGEND ================= -->
  <g>
    <rect x="1470" y="930" width="350" height="110" rx="8" fill="#FFFFFF" stroke="#E2E8F0"/>
    <text x="1486" y="952" font-size="11" font-weight="800" fill="#0F172A">LEGEND</text>
    <text x="1486" y="972" font-size="10.5" fill="#334155">PK = Primary Key · FK = Foreign Key · UQ = Unique</text>
    <line x1="1486" y1="988" x2="1530" y2="988" stroke="#94A3B8" stroke-width="1.4" marker-end="url(#arr)"/>
    <text x="1540" y="992" font-size="10.5" fill="#334155">Foreign key relation</text>
    <line x1="1486" y1="1008" x2="1530" y2="1008" stroke="#94A3B8" stroke-width="1.4" stroke-dasharray="5,4" marker-end="url(#arr)"/>
    <text x="1540" y="1012" font-size="10.5" fill="#334155">Logical link (receipt_no / reference)</text>
    <text x="1486" y="1030" font-size="10.5" fill="#64748B">Hierarchy: Branch → Area → Agent → Customer</text>
  </g>
</svg>
